<?xml version="1.0" encoding="utf-8"?>
<!-- Generator: Adobe Illustrator 23.0.1, SVG Export Plug-In . SVG Version: 6.00 Build 0)  -->
<svg version="1.1" id="Layer_1" xmlns="http://www.w3.org/2000/svg" xmlns:xlink="http://www.w3.org/1999/xlink" x="0px" y="0px"
	 viewBox="0 0 841.9 595.3" style="enable-background:new 0 0 841.9 595.3;" xml:space="preserve">
<style type="text/css">
	.st0{fill:#FF7300;}
	.st1{fill:#FFFFFF;}
</style>
<path class="st0" d="M701.3,452.7L701.3,452.7c34.8-44.8,55-98.1,55-155.4c0-158.4-154.7-286.9-345.6-286.9
	c-190.9,0-345.6,128.4-345.6,286.9c0,158.4,154.7,286.9,345.6,286.9c69.3,0,133.9-17,188-46.2c0,0,46.7,53.1,178.1,46.2
	C776.8,584.2,652.9,531.6,701.3,452.7z"/>
<g>
	<path class="st1" d="M282.9,299.8c-10.7-9.5-25.7-16.6-45-21.4c-19.3-4.8-31.6-8.9-36.9-12.4c-5.3-3.5-8-8.2-8-14.1
		c0-5.9,2.2-10.7,6.5-14.3c4.4-3.6,10.3-5.4,17.9-5.4c18.8,0,37,6.7,54.7,20.1l1.5-2.2l-18.2-52.1c-12.2-3.8-24.4-5.6-36.6-5.6
		c-20.8,0-38.1,5.2-51.9,15.7c-13.9,10.5-20.8,25.4-20.8,44.7c0,19.3,5.5,33.5,16.4,42.5c11,9,28.3,16.3,51.9,22
		c14.9,3.7,24.9,7.3,30,10.9c5,3.6,7.6,8.4,7.6,14.5c0,6.1-2.4,11-7.1,14.5c-4.8,3.6-11.3,5.4-19.6,5.4c-18.6,0-38.9-9.6-60.8-28.8
		L137.4,367c25.8,23.9,54.8,35.8,87,35.8c22.3,0,40.3-5.7,54-17c13.7-11.3,20.5-26.1,20.5-44.4C298.9,323.2,293.5,309.3,282.9,299.8
		z"/>
	<polygon class="st1" points="530.9,197.1 512.4,197.1 471.9,314.1 436.1,197.1 388.7,197.1 352.6,314.1 312.5,197.1 263.3,197.1 
		334.3,400.5 368,400.5 412.3,259.1 456.8,400.5 490.5,400.5 530.9,284.8 	"/>
	<path class="st1" d="M538.5,400.5V197.1h45.4V360h86.7v40.4H538.5z"/>
</g>
</svg>
